<svg width="320" height="263" viewBox="0 0 320 263" fill="none" xmlns="http://www.w3.org/2000/svg">
<path d="M216.104 2.94106L153.997 1.93753C153.997 1.93753 154.647 2.53858 154.636 3.6065C154.636 4.13242 154.47 4.76566 153.997 5.4955L153.734 5.80676L89.3723 81.9033C87.885 81.6028 86.4353 81.3184 85.0393 81.0608L152.07 1.08426C152.07 1.08426 152.36 0.456386 153.536 0.306125C153.707 0.284659 153.901 0.273926 154.105 0.273926L214.88 1.27209C214.88 1.27209 216.995 1.49211 216.104 2.94106Z" fill="#F1DC9A"/>
<path d="M162.121 173.933L162.008 177.604C162.008 177.604 144.757 177.378 139.747 189.952C139.747 189.952 136.515 224.437 135.409 245.914L133.288 246.295L132.971 246.348L126.42 247.529L126.383 245.318L125.583 190.118C125.583 190.118 121.325 182.643 113.98 182.943L103.794 183.362V179.605L162.121 173.933Z" fill="#F1DC9A"/>
<path d="M71.2508 232.642C70.6601 232.621 69.9568 232.588 69.2051 232.551L67.7231 175.269L70.5152 176.358L71.2508 232.642Z" fill="#F1DC9A"/>
<path d="M94.1938 180.276L92.6904 240.767L91.6863 241.851L85.7586 242.768L85.2056 181.108L94.1938 180.276Z" fill="#F1DC9A"/>
<path d="M103.794 179.605V183.362L95.6113 180.276L103.794 179.605Z" fill="#F1DC9A"/>
<path d="M186.385 165.921L184.602 170.702C184.602 170.702 184.269 172.151 182.6 171.926L162.121 173.928L103.794 179.6L95.6115 180.271H94.194L85.2058 181.103H82.9829L82.8701 175.709L186.385 165.921Z" fill="#F1DC9A"/>
<path d="M82.9773 181.108L82.5907 180.963L78.8591 179.605L70.5205 176.353L67.7285 175.269L59.4651 172.178L48.2755 167.858L42.6001 165.674L1.5249 149.736V145.062L3.42564 145.775L4.11291 146.038L82.8646 175.715L82.9773 181.108Z" fill="#F1DC9A"/>
<path d="M19.5605 126.789C16.1939 132.101 9.10108 132.461 6.28756 132.794C3.47404 133.126 3.42572 135.048 3.42572 135.048V145.775L1.53035 145.061L0.279302 144.396V134.382C0.279302 134.382 0.026945 131.71 2.98006 131.522C2.98006 131.522 15.2489 131.323 18.7068 122.034C18.7068 122.034 22.8787 113.024 17.649 102.956L20.8491 103.986C23.1848 107.711 23.4371 112.551 23.4371 112.551C24.0385 121.449 19.5605 126.789 19.5605 126.789Z" fill="#F1DC9A"/>
<path d="M54.8153 100.675C54.7616 101.115 54.4502 101.598 54.1065 102.001C48.2808 102.012 38.1812 102.666 30.6319 103.219C25.0317 103.632 20.8383 103.986 20.8383 103.986L17.6382 102.956L54.8153 100.675Z" fill="#F1DC9A"/>
<path d="M126.42 247.529L124.31 246.321L121.744 244.856C121.744 244.856 121.159 214.09 117.819 187.837L125.583 190.118L126.383 245.318L126.42 247.529Z" fill="#F1DC9A"/>
<path d="M125.583 190.118L117.819 187.838L113.98 182.943C121.325 182.643 125.583 190.118 125.583 190.118Z" fill="#F1DC9A"/>
<path d="M78.7035 166.248C78.231 169.157 76.5182 168.647 76.5182 168.647L5.84195 142.222L4.72514 140.221L4.11304 139.995L6.9534 140.108L8.95615 140.886L11.8878 141.954L78.7035 166.248Z" fill="#F1DC9A"/>
<path d="M78.8054 162.363V165.314C78.7839 165.658 78.7517 165.969 78.7034 166.254L11.8931 141.959V138.595L78.8054 162.363Z" fill="#F1DC9A"/>
<path d="M78.8054 161.858V162.357L11.8931 138.595L17.5147 138.391L80.1638 160.243C78.6604 160.924 78.8054 161.858 78.8054 161.858Z" fill="#F1DC9A"/>
<path d="M17.5148 138.385L11.8931 138.595V141.959L8.95612 140.892L6.95337 140.113L10.626 138.138L15.9684 137.929L17.5148 138.385Z" fill="#F1DC9A"/>
<path d="M319.71 97.278C319.71 98.727 307.823 99.9237 307.823 99.9237L275.934 103.095C258.151 104.598 235.444 106.852 235.444 106.852C208.061 109.771 200.882 112.776 200.882 112.776C197.542 113.78 197.542 118.036 197.542 118.036C197.124 120.123 185.853 120.542 185.853 120.542L102.285 126.547L98.2209 125.323L106.125 124.373L30.6375 103.981V103.213C38.1867 102.661 48.2864 102.006 54.1121 101.995C53.6771 102.51 53.2046 102.891 53.2046 102.891L51.9268 106.508L104.02 120.193L106.554 113.286L126.727 118.524L133.406 117.966L147.651 121.636L159.995 120.858L161.734 121.443L165.321 121.196L167.072 121.073L173.52 120.633L186.482 119.737C186.482 119.737 189.902 119.377 191.094 118.76C191.185 118.712 191.26 118.663 191.325 118.615C191.325 118.615 192.415 117.901 192.286 117.112C192.286 117.112 192.119 114.027 195.921 112.481C195.921 112.481 203.545 109.573 217.307 107.775C220.115 107.41 223.17 107.088 226.478 106.846C226.478 106.846 252.454 104.432 269.926 102.848C271.95 102.666 273.862 102.494 275.601 102.339C275.601 102.339 291.688 100.723 309.165 98.8343C309.165 98.8343 318.352 97.6698 313.949 95.9418C313.949 95.9418 308.37 93.5805 293.637 91.493L272.707 88.9922C277.094 89.2068 282.608 89.6308 288.461 90.4894C288.461 90.4894 301.82 91.6003 312.505 94.1601C312.505 94.1655 319.71 95.8344 319.71 97.278Z" fill="#F1DC9A"/>
<path d="M101.067 140.945C99.7888 149.955 94.7738 154.34 94.7738 154.34C93.7912 155.22 92.4758 156.003 91.0422 156.68L30.6375 136.217V110.072L100.154 130.121C102.13 136.588 101.067 140.945 101.067 140.945Z" fill="#F1DC9A"/>
<path d="M197.403 155.134C197.403 155.134 197.848 159.357 194.847 160.028C194.847 160.028 190.841 160.586 189.612 162.143L187.496 165.701L186.38 165.926L82.8593 175.714L82.5854 162.835C82.5854 162.835 82.6714 161 85.8392 160.581L90.2636 159.916C90.2636 159.916 102.538 158.579 105.292 144.229C105.292 144.229 107.488 134.704 102.291 126.541L185.859 120.536C185.859 120.536 197.129 120.118 197.548 118.03L197.403 155.134Z" fill="#F1DC9A"/>
<path d="M317.842 132.879C313.057 134.323 300.252 135.885 300.252 135.885L278.098 138.445C278.098 138.445 241.592 142.668 213.092 147.229C213.092 147.229 197.73 150.122 197.397 155.129L197.537 118.025C197.537 118.025 197.537 113.769 200.877 112.766C200.877 112.766 208.055 109.766 235.439 106.841C235.439 106.841 258.146 104.587 275.929 103.085L307.817 99.9132C307.817 99.9132 319.705 98.7165 319.705 97.2676V130.422C319.71 130.432 320.07 132.434 317.842 132.879Z" fill="#F1DC9A"/>
<path d="M317.842 132.879V134.774L315.731 136.443L315.506 138.224H312.612L312.279 141.337L302.818 142.115H300.257V135.885C300.257 135.885 313.058 134.323 317.842 132.879Z" fill="#F1DC9A"/>
<path d="M313.385 51.0244C316.161 42.3737 302.706 41.7619 302.706 41.7619C277.824 39.8675 235.638 38.1449 235.638 38.1449C213.21 38.0912 199.738 32.8052 199.738 32.8052C188.001 29.3009 185.547 19.7325 185.547 19.7325L182.766 10.1641C182.041 5.94069 171.856 5.43624 171.856 5.43624L153.729 5.80116L153.992 5.48991C154.475 4.76543 154.636 4.13219 154.636 3.60628H171.689C171.689 3.60628 182.6 2.94083 183.936 9.61672C183.936 9.61672 185.59 21.3425 193.381 26.8699C194.632 27.7554 196.039 28.4852 197.628 28.9736C197.628 28.9736 212.764 34.984 235.251 34.984C235.251 34.984 250.945 35.2041 300.252 38.542C300.252 38.542 311.721 39.2075 313.058 42.8835C313.058 42.8781 315.608 46.3395 313.385 51.0244Z" fill="#F1DC9A"/>
<path d="M309.159 98.8344C291.682 100.729 275.596 102.339 275.596 102.339C273.851 102.494 271.945 102.666 269.921 102.848C269.088 100.358 265.743 100.67 265.743 100.67C244.497 100.069 203.373 102.113 168.489 104.238L165.514 94.5412L239.138 89.7114C239.138 89.7114 256.728 88.4878 262.962 88.8205C262.962 88.8205 266.828 88.7078 272.697 88.9923L293.626 91.493C308.359 93.5806 313.938 95.9418 313.938 95.9418C318.346 97.6698 309.159 98.8344 309.159 98.8344Z" fill="#F1DC9A"/>
<path d="M313.385 51.0247C313.289 51.2394 313.176 51.4486 313.058 51.6633C313.058 51.6633 308.155 60.4482 288.901 74.1327C288.901 74.1327 269.534 86.8137 254.06 88.0426L239.031 89.1535L239.144 89.7116L165.52 94.5414L164.177 90.1516C164.177 90.1516 161.23 86.701 160.338 82.5849L143.699 26.8648C143.699 26.8648 142.48 26.3604 141.734 27.2137C141.541 27.4283 141.379 27.7396 141.277 28.1635L156.22 83.6528C156.22 83.6528 157.471 86.9908 156.886 91.6596L157.852 95.0512L112.144 98.0511L114.919 90.4951C115.585 88.7134 114.474 88.268 114.474 88.268C105.534 85.4882 96.8947 83.4221 89.3669 81.9034L153.729 5.80681L171.856 5.44189C171.856 5.44189 182.041 5.94634 182.766 10.1698L185.547 19.7382C185.547 19.7382 188.001 29.3066 199.738 32.8109C199.738 32.8109 213.21 38.0969 235.638 38.1505C235.638 38.1505 277.83 39.8732 302.706 41.7675C302.711 41.7622 316.161 42.3739 313.385 51.0247Z" fill="#F1DC9A"/>
<path d="M300.257 135.885V142.115L294.915 141.557C294.915 141.557 290.797 140.221 289.46 147.122V192.737L286.485 191.793L284.896 191.288L282.114 145.12L278.104 138.445L300.257 135.885Z" fill="#F1DC9A"/>
<path d="M114.925 90.4951L112.149 98.0511L108.38 108.317L106.887 112.385L106.554 113.292L104.02 120.199L51.9268 106.514L53.2047 102.897C53.2047 102.897 53.6772 102.516 54.1121 102.001C54.4503 101.598 54.7671 101.115 54.8208 100.675C54.8208 100.675 56.045 99.8382 62.4506 79.1504C62.4506 79.1504 62.6171 77.9269 64.1205 78.0396C64.1205 78.0396 72.5932 78.7479 85.0447 81.0662C86.4407 81.3238 87.8904 81.6029 89.3777 81.9088C96.9055 83.4275 105.545 85.499 114.485 88.2734C114.479 88.2681 115.591 88.7135 114.925 90.4951Z" fill="#F1DC9A"/>
<path d="M105.298 144.229C102.543 158.579 90.269 159.916 90.269 159.916L85.8447 160.581C82.6714 161 82.5909 162.835 82.5909 162.835L82.8647 175.714L4.11304 146.038V140.001L4.72514 140.226L5.84195 142.228L76.5182 168.652C76.5182 168.652 78.231 169.162 78.7035 166.253C78.7518 165.974 78.784 165.663 78.8055 165.314V161.864C78.8055 161.864 78.6605 160.93 80.1639 160.248C80.529 160.076 80.9962 159.926 81.5868 159.808C81.5868 159.808 82.0861 159.701 82.9076 159.497C84.7278 159.035 88.1159 158.075 91.0475 156.685C92.4758 156.009 93.7966 155.225 94.7792 154.345C94.7792 154.345 99.7887 149.966 101.072 140.95C101.072 140.95 102.135 136.587 100.154 130.126C99.6921 128.629 99.0693 127.014 98.2316 125.318L102.296 126.541C107.494 134.698 105.298 144.229 105.298 144.229Z" fill="#F1DC9A"/>
<path d="M30.6374 103.213V136.217L18.4223 136.968H18.4169L17.5148 138.385L15.9685 137.924L10.626 138.133L6.95341 140.108L4.11305 139.995V146.032L3.42041 145.769V135.042C3.42041 135.042 3.46873 133.121 6.28225 132.788C9.09577 132.455 16.1886 132.096 19.5552 126.783C19.5552 126.783 24.0386 121.443 23.4211 112.54C23.4211 112.54 23.1687 107.7 20.8331 103.975C20.8384 103.981 25.0372 103.627 30.6374 103.213Z" fill="#F1DC9A"/>
<path d="M98.2263 125.313C99.0639 127.014 99.6921 128.624 100.149 130.121L30.6375 110.072V103.981L106.135 124.363L98.2263 125.313Z" fill="#F1DC9A"/>
<path d="M91.0474 156.68C88.1157 158.07 84.7277 159.03 82.9075 159.492L18.4167 136.969L30.6319 136.217L91.0474 156.68Z" fill="#F1DC9A"/>
<path d="M82.9077 159.497C82.0916 159.701 81.5868 159.808 81.5868 159.808C80.9962 159.927 80.5345 160.077 80.164 160.248L17.5149 138.385L18.4169 136.969H18.4223L82.9077 159.497Z" fill="#F1DC9A"/>
<path d="M216.104 2.94103L193.381 26.8701C185.59 21.348 183.937 9.61692 183.937 9.61692C182.6 2.94103 171.689 3.60647 171.689 3.60647H154.636C154.647 2.53854 153.997 1.9375 153.997 1.9375L216.104 2.94103Z" fill="#F1DC9A"/>
<path d="M160.618 104.732C131.419 106.568 108.38 108.312 108.38 108.312L112.149 98.0458L157.858 95.0459L160.618 104.732Z" fill="#F1DC9A"/>
<path d="M269.926 102.854C252.454 104.437 226.478 106.852 226.478 106.852C223.17 107.094 220.11 107.41 217.307 107.781C217.763 106.294 201.156 107.351 201.156 107.351C200.141 104.078 196.63 105.328 196.63 105.328L169.488 107.464L168.5 104.249C203.384 102.124 244.508 100.08 265.754 100.681C265.749 100.675 269.094 100.359 269.926 102.854Z" fill="#F1DC9A"/>
<path d="M173.52 120.639L167.071 121.079L164.661 112.584L163.34 107.942L162.4 104.614L159.651 94.9278L158.556 91.0747C158.556 91.0747 159.388 88.3217 158.056 82.8962L141.734 27.2137C142.48 26.3604 143.699 26.8649 143.699 26.8649L160.338 82.5903C161.23 86.7064 164.177 90.157 164.177 90.157L165.52 94.5468L168.494 104.244L169.482 107.459L171.029 112.508L173.52 120.639Z" fill="#F1DC9A"/>
<path d="M161.573 108.081L106.887 112.385L108.38 108.317C108.38 108.317 131.419 106.568 160.618 104.738L161.573 108.081Z" fill="#F1DC9A"/>
<path d="M167.072 121.078L165.321 121.202L162.867 112.605L161.579 108.075L160.623 104.732L157.858 95.0509L156.891 91.6593C157.477 86.9905 156.225 83.6526 156.225 83.6526L141.283 28.1632C141.385 27.7393 141.546 27.4334 141.739 27.2134L158.067 82.8959C159.399 88.3214 158.567 91.0744 158.567 91.0744L159.662 94.9275L162.411 104.614L163.351 107.941L164.671 112.583L167.072 121.078Z" fill="#F1DC9A"/>
<path d="M165.321 121.202L161.734 121.449L159.995 120.864L147.645 121.642L133.4 117.971L126.721 118.53L106.554 113.292L162.862 112.605L165.321 121.202Z" fill="#F1DC9A"/>
<path d="M162.862 112.605L106.554 113.292L106.887 112.385L161.573 108.081L162.862 112.605Z" fill="#F1DC9A"/>
<path d="M191.094 118.76C189.907 119.383 186.481 119.737 186.481 119.737L173.52 120.633L171.029 112.503L181.096 112.379C181.096 112.379 183.265 112.68 183.77 113.517L191.094 118.76Z" fill="#F1DC9A"/>
<path d="M217.301 107.775C203.545 109.573 195.916 112.482 195.916 112.482C192.114 114.022 192.28 117.113 192.28 117.113C192.409 117.902 191.319 118.615 191.319 118.615C191.255 118.664 191.18 118.717 191.089 118.76L183.765 113.523C183.265 112.685 181.091 112.385 181.091 112.385L171.023 112.508L169.477 107.459L196.619 105.323C196.619 105.323 200.13 104.078 201.145 107.346C201.151 107.346 217.758 106.289 217.301 107.775Z" fill="#F1DC9A"/>
<path d="M73.7367 233.651V234.515C72.8723 234.515 72.0508 234.504 71.2722 234.488C70.6547 234.478 70.0587 234.451 69.5003 234.424C64.974 234.215 62.4451 233.705 62.4451 233.705C60.8557 233.12 61.7793 232.283 61.7793 232.283C62.4182 231.531 63.8626 231.896 63.8626 231.896C65.2425 232.256 67.3633 232.444 69.2104 232.551C69.9567 232.589 70.6655 232.621 71.2561 232.642C71.6642 232.653 72.0185 232.664 72.2977 232.664C72.738 232.674 72.9904 232.674 72.9904 232.674C73.8226 233.034 73.7367 233.651 73.7367 233.651Z" fill="#F1DC9A"/>
<path d="M82.9773 227.56V231.563L71.2883 226.444L78.4134 225.773L82.9773 227.56Z" fill="#F1DC9A"/>
<path d="M82.2525 240.209V236.592L80.3302 235.561V236.699L78.1879 236.865V234.504L76.3516 233.64V234.751H74.2414V232.653L72.2924 231.799V232.653C72.0132 232.653 71.6588 232.642 71.2507 232.631L70.5205 176.348L78.859 179.6L78.4134 225.768L71.2937 226.438L82.9827 231.558V227.555L82.5961 180.963L82.9827 181.108H85.2056L85.764 242.768L78.1449 239.06C79.1383 238.69 80.3088 238.652 80.3088 238.652L80.3947 239.291L82.2525 240.209Z" fill="#F1DC9A"/>
<path d="M81.5869 238.599L80.3036 238.653C80.3036 238.653 79.1331 238.69 78.1398 239.06C77.8606 239.162 77.5975 239.297 77.3827 239.458C77.3827 239.458 73.9839 240.123 72.4 238.765C72.4 238.765 71.7825 237.703 74.2309 237.155C74.2363 237.161 74.2363 237.161 74.2363 237.155C74.5316 237.096 74.8752 237.032 75.2672 236.989L78.1935 236.871L80.3358 236.705L81.3399 237.37C81.3345 237.375 81.6942 237.681 81.5869 238.599Z" fill="#F1DC9A"/>
<path d="M77.5222 236.458C77.5222 236.458 75.3852 236.592 73.3341 236.726C72.0133 236.807 70.73 236.887 70.0642 236.935C68.3675 237.048 67.4494 236.962 66.6977 236.463C66.6977 236.463 65.1137 235.24 67.4494 234.767H76.3517L77.2698 235.186C77.2698 235.175 77.7745 235.54 77.5222 236.458Z" fill="#F1DC9A"/>
<path d="M53.9993 210.812V211.729L52.0342 213.522V212.352L53.9993 210.812Z" fill="#F1DC9A"/>
<path d="M45.607 212.169L44.9305 213.645L42.8579 218.158C42.8579 218.158 41.9398 220.369 43.5237 221.201C45.1077 222.038 46.2352 220.406 46.3641 219.993L48.5977 215.459L48.6031 215.448L48.6084 215.442L48.7105 215.233C48.7105 215.233 49.2044 214.042 51.234 213.634C51.481 213.586 51.7495 213.548 52.0448 213.521V212.351L45.607 212.169ZM44.56 220.761C43.7868 220.761 43.164 220.138 43.164 219.365C43.164 218.593 43.7868 217.97 44.56 217.97C45.3332 217.97 45.956 218.593 45.956 219.365C45.956 220.138 45.3332 220.761 44.56 220.761Z" fill="#F1DC9A"/>
<path d="M59.4653 172.178L57.0437 209.851L52.4583 210.639L49.0273 211.23C49.0381 210.913 49.0488 210.586 49.0542 210.253C49.4193 195.436 48.2756 167.858 48.2756 167.858L59.4653 172.178Z" fill="#F1DC9A"/>
<path d="M49.054 210.253C49.0486 210.586 49.0379 210.908 49.0272 211.23L47.4056 210.419L45.1827 209.314L42.5947 165.674L48.2701 167.863C48.2755 167.858 49.4191 195.436 49.054 210.253Z" fill="#F1DC9A"/>
<path d="M53.9992 210.811L52.034 212.351L45.6069 212.169L45.8217 211.954H45.8271L47.4057 210.419L49.0272 211.23L52.4582 210.639L53.9992 210.811Z" fill="#F1DC9A"/>
<path d="M52.034 218.614C52.034 218.614 51.0192 220.654 49.3064 222.194C51.5884 218.072 49.1668 215.877 48.5977 215.437L48.6997 215.228C48.6997 215.228 49.1936 214.037 51.2232 213.629C51.5615 214.069 52.7159 215.818 52.034 218.614Z" fill="#F1DC9A"/>
<path d="M49.3118 222.199C48.9897 222.489 48.646 222.757 48.2756 222.999C45.9399 224.501 43.3895 224.416 41.6015 222.999C41.6015 222.999 38.8846 220.831 39.8887 217.031C39.8887 217.031 40.2431 215.217 42.1331 214.235C42.8311 213.903 43.7385 213.672 44.9305 213.65L42.8579 218.164C42.8579 218.164 41.9398 220.375 43.5237 221.206C45.1077 222.044 46.2352 220.412 46.3641 219.999L48.5977 215.464L48.6031 215.454L48.6085 215.448C49.1669 215.877 51.5938 218.072 49.3118 222.199Z" fill="#F1DC9A"/>
<path d="M45.8217 211.954L45.6016 212.169L44.9251 213.645C43.7331 213.666 42.8257 213.897 42.1276 214.23C42.0793 214.251 42.031 214.272 41.988 214.294C42.0686 214.197 43.3733 212.614 45.8217 211.954Z" fill="#F1DC9A"/>
<path d="M45.9561 219.365C45.9561 220.138 45.3333 220.761 44.5601 220.761C43.7869 220.761 43.1641 220.138 43.1641 219.365C43.1641 218.593 43.7869 217.97 44.5601 217.97C45.3333 217.97 45.9561 218.593 45.9561 219.365Z" fill="#F1DC9A"/>
<path d="M288.477 193.44V194.685L286.394 192.775V191.803L288.477 193.44Z" fill="#F1DC9A"/>
<path d="M298.233 199.606L296.031 194.809H296.026L295.312 193.247L288.482 193.446V194.691C288.81 194.712 289.11 194.755 289.379 194.814C291.5 195.254 292.021 196.505 292.021 196.505L292.133 196.741L294.507 201.56C294.641 202.005 295.838 203.733 297.524 202.842C299.21 201.957 298.233 199.606 298.233 199.606ZM296.418 202.375C295.602 202.375 294.936 201.715 294.936 200.894C294.936 200.073 295.602 199.408 296.418 199.408C297.24 199.408 297.905 200.073 297.905 200.894C297.905 201.71 297.24 202.375 296.418 202.375Z" fill="#F1DC9A"/>
<path d="M302.818 142.115L299.704 147.234L296.144 192.066L294.292 192.248L289.465 192.731V147.116C290.802 140.215 294.92 141.551 294.92 141.551L300.263 142.11H302.818V142.115Z" fill="#F1DC9A"/>
<path d="M295.312 193.247L288.477 193.44L286.394 191.803L286.485 191.792L289.459 192.732L294.286 192.254L295.076 193.011L295.312 193.247Z" fill="#F1DC9A"/>
<path d="M299.57 204.742C297.664 206.25 294.958 206.341 292.477 204.742C292.235 204.586 291.999 204.415 291.779 204.237C288.692 199.075 292.133 196.735 292.133 196.735L294.507 201.554C294.641 202 295.838 203.728 297.524 202.837C299.205 201.951 298.233 199.601 298.233 199.601L296.032 194.803C297.385 194.825 298.394 195.109 299.151 195.501C299.151 195.506 299.151 195.506 299.151 195.506C301.165 196.547 301.385 198.404 301.385 198.404C302.448 202.445 299.57 204.742 299.57 204.742Z" fill="#F1DC9A"/>
<path d="M291.779 204.237C289.717 202.585 288.477 200.089 288.477 200.089C287.634 196.633 289.374 194.809 289.374 194.809C291.494 195.249 292.015 196.499 292.015 196.499L292.128 196.735C292.133 196.735 288.692 199.08 291.779 204.237Z" fill="#F1DC9A"/>
<path d="M299.156 195.506C298.399 195.114 297.384 194.83 296.037 194.809H296.031L295.312 193.247L295.076 193.016C297.68 193.719 299.076 195.41 299.156 195.506Z" fill="#F1DC9A"/>
<path d="M297.905 200.889C297.905 201.71 297.245 202.37 296.418 202.37C295.602 202.37 294.936 201.71 294.936 200.889C294.936 200.068 295.602 199.402 296.418 199.402C297.239 199.408 297.905 200.068 297.905 200.889Z" fill="#F1DC9A"/>
<path d="M133.288 246.294V247.25L130.834 249.498V248.033L132.971 246.348L133.288 246.294Z" fill="#F1DC9A"/>
<path d="M121.47 258.562C120.504 258.562 119.72 257.779 119.72 256.813C119.72 255.847 120.509 255.063 121.47 255.063C122.436 255.063 123.22 255.847 123.22 256.813C123.226 257.779 122.442 258.562 121.47 258.562ZM122.785 247.802L121.932 249.654L119.338 255.299C119.338 255.299 118.184 258.068 120.171 259.109C122.157 260.156 123.569 258.122 123.725 257.596L126.523 251.913L126.662 251.639C126.662 251.639 127.269 250.163 129.776 249.643C130.098 249.579 130.453 249.525 130.834 249.498V248.033L122.785 247.802Z" fill="#F1DC9A"/>
<path d="M132.971 246.348L130.834 248.033L122.785 247.802L123.059 247.529L124.31 246.321L126.42 247.529L132.971 246.348Z" fill="#F1DC9A"/>
<path d="M130.834 255.874C130.834 255.874 129.379 258.809 126.941 260.757C130.587 254.671 126.522 251.913 126.522 251.913L126.657 251.639C126.657 251.639 127.263 250.164 129.771 249.643C129.776 249.643 131.827 251.795 130.834 255.874Z" fill="#F1DC9A"/>
<path d="M123.038 247.555L122.785 247.802L121.932 249.654C120.391 249.697 119.07 250.035 118.205 250.491C118.307 250.367 120.02 248.393 123.038 247.555Z" fill="#F1DC9A"/>
<path d="M126.947 260.762C126.684 260.972 126.41 261.176 126.125 261.358C123.204 263.242 120.015 263.14 117.77 261.358C117.77 261.358 114.372 258.643 115.623 253.888C115.623 253.888 115.88 251.736 118.2 250.496C118.2 250.496 118.205 250.496 118.205 250.491C119.07 250.035 120.391 249.702 121.932 249.654L119.333 255.299C119.333 255.299 118.179 258.068 120.165 259.11C122.152 260.156 123.564 258.117 123.725 257.596L126.522 251.913C126.522 251.913 130.587 254.671 126.947 260.762Z" fill="#F1DC9A"/>
<path d="M123.226 256.813C123.226 257.779 122.442 258.562 121.475 258.562C120.509 258.562 119.725 257.779 119.725 256.813C119.725 255.847 120.514 255.063 121.475 255.063C122.442 255.063 123.226 255.847 123.226 256.813Z" fill="#F1DC9A"/>
</svg>
